<svg width="20" height="20" viewBox="0 0 20 20" fill="none" xmlns="http://www.w3.org/2000/svg">
<rect width="20" height="20" fill="#E5E5E5"/>
<g clip-path="url(#clip0_0_1)">
<rect width="1440" height="2400" transform="translate(-128 -31)" fill="white"/>
<g filter="url(#filter0_d_0_1)">
<rect width="1440" height="77" transform="matrix(1 0 0 -1 -128 46)" fill="url(#paint0_linear_0_1)" fill-opacity="0.7" shape-rendering="crispEdges"/>
<rect x="0.5" y="-0.5" width="1439" height="76" transform="matrix(1 0 0 -1 -128 45)" stroke="black" shape-rendering="crispEdges"/>
</g>
<g clip-path="url(#clip1_0_1)">
<path d="M0 3.92122C0.0354484 3.7581 0.0638072 3.60207 0.0992556 3.43895C0.212691 2.99924 0.418291 2.60207 0.737327 2.28292C1.31868 1.70136 1.89295 1.1198 2.48139 0.545335C2.97058 0.0701576 3.53775 -0.163885 4.20418 0.119803C4.43814 0.219094 4.66501 0.36803 4.84225 0.545335C5.72138 1.40349 6.58632 2.26874 7.44417 3.14108C7.82701 3.53115 8.07515 3.98505 7.99007 4.55243C7.92627 4.97796 7.67813 5.3042 7.38745 5.60207C6.89826 6.09143 6.40907 6.5808 5.91989 7.06307C5.66466 7.31838 5.66466 7.38221 5.80645 7.70846C6.36654 8.95668 7.2173 9.99214 8.13187 10.9851C9.04644 11.9709 10.0461 12.8574 11.1875 13.5737C11.5775 13.8148 11.9957 14.0134 12.3999 14.2333C12.5842 14.3326 12.726 14.2546 12.8607 14.1198C13.3711 13.6092 13.8674 13.0914 14.3921 12.595C14.5977 12.3964 14.8316 12.212 15.0868 12.0985C15.6115 11.8574 16.1149 11.9709 16.5686 12.2971C16.682 12.3822 16.7884 12.4815 16.8947 12.5808C17.7242 13.4035 18.5537 14.2191 19.369 15.056C19.5675 15.2616 19.7519 15.4957 19.8653 15.751C20.1205 16.2971 20.0213 16.8503 19.6242 17.2829C18.9862 17.9851 18.3127 18.6588 17.632 19.3184C17.2563 19.6801 16.7742 19.8645 16.2566 19.9496C16.1928 19.9567 16.129 19.978 16.0723 19.9921C15.7958 19.9921 15.5264 19.9921 15.2499 19.9921C15.2003 19.978 15.1577 19.9638 15.1081 19.9567C14.4913 19.829 13.8532 19.751 13.2577 19.5595C11.4782 18.9992 9.86884 18.0843 8.35874 17.0134C5.61503 15.0702 3.41723 12.6233 1.75115 9.70136C1.12017 8.60207 0.609713 7.44604 0.276498 6.21909C0.155973 5.77938 0.0921659 5.32548 0 4.87158C0 4.55952 0 4.24037 0 3.92122Z" fill="white"/>
</g>
</g>
<defs>
<filter id="filter0_d_0_1" x="-132" y="-31" width="1448" height="85" filterUnits="userSpaceOnUse" color-interpolation-filters="sRGB">
<feFlood flood-opacity="0" result="BackgroundImageFix"/>
<feColorMatrix in="SourceAlpha" type="matrix" values="0 0 0 0 0 0 0 0 0 0 0 0 0 0 0 0 0 0 127 0" result="hardAlpha"/>
<feOffset dy="4"/>
<feGaussianBlur stdDeviation="2"/>
<feComposite in2="hardAlpha" operator="out"/>
<feColorMatrix type="matrix" values="0 0 0 0 0 0 0 0 0 0 0 0 0 0 0 0 0 0 0.25 0"/>
<feBlend mode="normal" in2="BackgroundImageFix" result="effect1_dropShadow_0_1"/>
<feBlend mode="normal" in="SourceGraphic" in2="effect1_dropShadow_0_1" result="shape"/>
</filter>
<linearGradient id="paint0_linear_0_1" x1="1440" y1="-0.000233223" x2="25.4713" y2="43.7196" gradientUnits="userSpaceOnUse">
<stop stop-color="#2E3192"/>
<stop offset="1" stop-color="#D4145A"/>
</linearGradient>
<clipPath id="clip0_0_1">
<rect width="1440" height="2400" fill="white" transform="translate(-128 -31)"/>
</clipPath>
<clipPath id="clip1_0_1">
<rect width="20" height="20" fill="white"/>
</clipPath>
</defs>
</svg>
